<svg id="Layer_1" data-name="Layer 1" xmlns="http://www.w3.org/2000/svg" viewBox="0 0 358.43 55.98"><defs><style>.cls-1{fill:#0089cf;}</style></defs><title>O-Sao-Paulo</title><path class="cls-1" d="M11.35,12.52q2.91-5.8,9.09-5.8a9.51,9.51,0,0,1,9.07,5.71q2.86,5.71,2.86,18.16t-2.86,18.2a9.52,9.52,0,0,1-9.07,5.71,9.58,9.58,0,0,1-9.11-5.75Q8.44,43,8.44,30.59t2.92-18.08h0ZM5.69,48.93a18.09,18.09,0,0,0,14.75,7,18,18,0,0,0,14.7-7.07q5.67-7.07,5.68-18.32T35.14,12.28a18,18,0,0,0-14.7-7,18.1,18.1,0,0,0-14.75,7Q0,19.31,0,30.59T5.69,48.93h0ZM54.59,36.87V51.62a13.38,13.38,0,0,0,5.69,3.16A27.36,27.36,0,0,0,68.55,56q8.16,0,13.53-4.36a13.36,13.36,0,0,0,5.37-10.77,10.78,10.78,0,0,0-2.78-7.56q-2.78-3-12.11-7L71.74,26Q59.49,20.78,59.49,15.16a7.24,7.24,0,0,1,3.26-6A13.56,13.56,0,0,1,71,6.72q7.51,0,11.6,13.31,0.31,1,.48,1.51h1.54V8.13A32.66,32.66,0,0,0,78.31,6,28.21,28.21,0,0,0,72,5.24q-7.92,0-12.78,3.64a11.27,11.27,0,0,0-4.85,9.43,10.36,10.36,0,0,0,2.8,7.39q2.79,3,12.95,7.36Q77,36,79,38.21a7.52,7.52,0,0,1,2,5.32,10,10,0,0,1-3.41,7.73A12.33,12.33,0,0,1,69,54.37q-7.82,0-12.69-17l-0.14-.48H54.59ZM102.8,11.93l6.45,22H95.84l7-22h0ZM95.49,55V53.23h-5.9l5.52-17.56h14.71L115,53.23h-4.84V55h16.57V53.23H123L107.43,5.38h-4.36L87.53,53.23H83.69V55h11.8Zm37.75-42.47q2.92-5.8,9.09-5.8a9.51,9.51,0,0,1,9.07,5.71q2.87,5.71,2.87,18.16t-2.87,18.2a10.08,10.08,0,0,1-18.18,0q-2.9-5.74-2.9-18.16t2.92-18.08h0Zm-5.66,36.41a18.89,18.89,0,0,0,29.45,0q5.68-7.07,5.68-18.32T157,12.28a18.93,18.93,0,0,0-29.45,0q-5.7,7-5.69,18.32t5.69,18.33h0ZM194,8q6.41,0,9.11,2.4t2.69,8q0,6-2.87,8.39t-11.54,2.35H189V8h5ZM177.2,8h4.29V53.23H177.2V55h17.56V53.23H189V31h3.4q11.76,0,16.55-2.9t4.79-9.69A11.62,11.62,0,0,0,212,12.05a11.48,11.48,0,0,0-5-4.27,15.87,15.87,0,0,0-4.56-1.18,62.51,62.51,0,0,0-7.62-.36H177.2V8h0Zm44.87,3.94,6.45,22H215.11l7-22h0Zm-7.3,43V53.23h-5.9l5.52-17.56h14.71l5.18,17.56h-4.84V55H246V53.23h-3.71L226.71,5.38h-4.36L206.81,53.23h-3.39V55h11.35ZM242.35,8h4.36V38.21q0,10.08,3.5,13.93T262.11,56q7.31,0,11-3.57t3.72-10.57V8h4.08V6.24H269.42V8h5.46V37.56a48.07,48.07,0,0,1-.52,8.49,10,10,0,0,1-1.78,4.17,9.14,9.14,0,0,1-3.65,2.8,12.4,12.4,0,0,1-5,1q-5.21,0-7.49-3.12T254.15,40.3V8h5V6.24H242.35V8h0Zm41.39,0H288V53.23h-4.29V55h32.52V35.74h-2q-0.82,5.11-1.82,9.18a38.62,38.62,0,0,1-1.82,5.92,3.82,3.82,0,0,1-1.58,1.92,9,9,0,0,1-3.63.48h-9.91V8h6V6.24H283.74V8h0ZM329,12.52q2.92-5.8,9.09-5.8a9.51,9.51,0,0,1,9.07,5.71Q350,18.14,350,30.59t-2.87,18.2a10.08,10.08,0,0,1-18.18,0Q326,43,326,30.59T329,12.52h0Zm-5.66,36.41a18.89,18.89,0,0,0,29.45,0q5.68-7.07,5.68-18.32t-5.68-18.32a18.93,18.93,0,0,0-29.45,0q-5.7,7-5.7,18.32t5.7,18.33h0Z"/><path class="cls-1" d="M99.17,4.42a3.75,3.75,0,0,1,1-1.57,2.09,2.09,0,0,1,1.51-.34,3.19,3.19,0,0,1,.5.12c0.24,0.07.53,0.16,0.86,0.29L105.72,4a9.62,9.62,0,0,0,.93.29,5.32,5.32,0,0,0,.83.14,3.58,3.58,0,0,0,2.84-.91A7.49,7.49,0,0,0,112.22.14L111,0a3.55,3.55,0,0,1-.95,1.5,1.86,1.86,0,0,1-1.39.38,3.66,3.66,0,0,1-.62-0.11l-0.68-.19-2.66-1.06q-0.57-.21-1.09-0.36A5.35,5.35,0,0,0,102.7,0,3.61,3.61,0,0,0,99.85,1,7.16,7.16,0,0,0,98,4.32l1.2,0.1h0Z"/></svg>